<?xml version="1.0" encoding="utf-8"?>
<!-- Generator: Adobe Illustrator 23.0.3, SVG Export Plug-In . SVG Version: 6.00 Build 0)  -->
<svg version="1.1" id="Layer_1" xmlns="http://www.w3.org/2000/svg" xmlns:xlink="http://www.w3.org/1999/xlink" x="0px" y="0px"
	 viewBox="0 0 141.73 142.2" style="enable-background:new 0 0 141.73 142.2;" xml:space="preserve">
<g>
	<g>
		<path d="M73.07,61.6c0,1.75-0.41,3.2-1.24,4.35c-1.07,1.49-2.85,2.23-5.33,2.23h-3.16v6.44H58.3V55.21h8.03
			c2.28,0,4.02,0.67,5.2,2C72.56,58.36,73.07,59.82,73.07,61.6z M67.84,61.66c0-0.72-0.21-1.3-0.63-1.73
			c-0.42-0.43-1.14-0.65-2.16-0.65h-1.7v4.83h1.68c1.09,0,1.84-0.24,2.25-0.71C67.65,62.97,67.84,62.39,67.84,61.66z"/>
		<path d="M90.3,74.62h-5.39l-1.25-3.38H76.7l-1.34,3.38h-5.33l7.46-19.41h5.5L90.3,74.62z M82.3,67.39l-2.09-6.19l-2.12,6.19H82.3z
			"/>
		<path d="M107.02,64.91c0,2.02-0.61,3.89-1.83,5.61s-2.77,2.91-4.67,3.58c-1.01,0.35-2.03,0.53-3.07,0.53H90V55.21h7.45
			c1.82,0,3.51,0.51,5.06,1.52c1.53,0.99,2.7,2.3,3.51,3.95C106.69,62.05,107.02,63.46,107.02,64.91z M101.79,64.91
			c0-1.34-0.38-2.51-1.13-3.51c-1-1.32-2.48-1.98-4.46-1.98h-1.15v10.99h1.15c1.99,0,3.47-0.66,4.46-1.98
			C101.41,67.42,101.79,66.25,101.79,64.91z"/>
		<path d="M118.76,74.62h-11.05V55.21h11.05v4.21h-6v3.31h5.67v4.21h-5.67v3.47h6V74.62z"/>
		<path d="M131.14,74.62h-11.1V55.21h5.05v15.2h6.06V74.62z"/>
		<g>
			<path d="M26.97,56.34c-1.59-1.17-3.53-1.76-5.83-1.76c-3.43,0-6.1,1.09-8.02,3.28c-1.69,1.93-2.53,4.3-2.53,7.12
				c0,2.55,0.72,4.75,2.16,6.59c0.27,0.35,0.57,0.67,0.87,0.97c0.66-0.36,1.32-0.69,1.99-1.02c0.9-0.45,1.82-0.87,2.74-1.27
				c-0.28-0.18-0.54-0.4-0.78-0.65c-1.17-1.23-1.75-2.77-1.75-4.61c0-0.89,0.16-1.75,0.49-2.58c0.86-2.26,2.39-3.39,4.59-3.39
				c1.07,0,2,0.32,2.78,0.96c0.54,0.45,1.02,1.13,1.43,2.04l4.78-1.98C29.08,58.41,28.11,57.18,26.97,56.34z"/>
			<path d="M51.4,64.97c0,2.64-0.88,4.95-2.63,6.94c-2,2.26-4.71,3.4-8.12,3.4c-3.4,0-6.1-1.14-8.1-3.4
				c-0.98-1.11-1.69-2.33-2.12-3.64c-0.06,0.25-0.14,0.49-0.22,0.71c-0.72,2.02-1.91,3.57-3.57,4.66c-1.6,1.04-3.5,1.56-5.69,1.56
				c-1.68,0-3.17-0.27-4.48-0.81c0.19-0.13,0.38-0.25,0.57-0.37c0.94-0.61,1.9-1.2,2.87-1.77c0.93-0.54,5.23-2.76,6.01-3.11
				c1.4-0.63,2.83-1.2,4.29-1.7c0.15-0.05,0.3-0.1,0.45-0.16c0.54-0.18,1.08-0.35,1.63-0.51c0.98-0.28,1.98-0.51,2.99-0.71
				c0.18,0.88,0.58,1.68,1.2,2.42c1.08,1.28,2.48,1.93,4.19,1.93c1.71,0,3.11-0.64,4.21-1.91c0.88-1.02,1.31-2.2,1.31-3.54
				c0-1.37-0.43-2.55-1.31-3.55c-1.12-1.27-2.52-1.91-4.21-1.91c-1.16,0-2.21,0.33-3.15,0.98c-0.94,0.65-1.61,1.52-2.01,2.6
				c-0.23,0.62-0.34,1.24-0.34,1.88c0,0.23,0.01,0.44,0.04,0.66c-1.03,0.07-2.06,0.19-3.09,0.35c-0.43,0.08-0.87,0.16-1.3,0.24
				c-0.27,0.05-0.53,0.11-0.8,0.16c-1.57,0.33-3.13,0.74-4.67,1.22c0,0-0.26,0.08-0.26,0.07h-4.15v-3.84h9.07
				c0.1-0.84,0.32-1.7,0.64-2.57c0.48-1.26,1.11-2.35,1.91-3.25c2-2.26,4.71-3.4,8.12-3.4c3.42,0,6.12,1.14,8.12,3.4
				C50.53,60.01,51.4,62.33,51.4,64.97z"/>
		</g>
	</g>
	<g>
		<path d="M36.18,98.93h-11.1V79.52h5.05v15.2h6.06V98.93z"/>
		<path d="M48.54,98.93H37.49V79.52h11.05v4.21h-6v3.31h5.67v4.21h-5.67v3.47h6V98.93z"/>
		<path d="M68.12,98.93h-5.39l-1.25-3.38h-6.97l-1.34,3.38h-5.33l7.46-19.41h5.5L68.12,98.93z M60.11,91.71l-2.09-6.19l-2.12,6.19
			H60.11z"/>
		<path d="M86.45,88.16c0,2.1-0.24,3.82-0.71,5.15c-0.72,2.02-1.91,3.57-3.57,4.66c-1.6,1.04-3.5,1.56-5.69,1.56
			c-3.56,0-6.3-1.21-8.2-3.64c-1.44-1.84-2.16-4.03-2.16-6.58c0-2.82,0.84-5.2,2.53-7.12c1.92-2.19,4.59-3.28,8.02-3.28
			c2.29,0,4.24,0.59,5.83,1.76c1.14,0.83,2.11,2.07,2.91,3.7l-4.78,1.98c-0.41-0.91-0.88-1.58-1.43-2.04
			c-0.78-0.64-1.71-0.96-2.78-0.96c-2.2,0-3.73,1.13-4.59,3.39c-0.32,0.83-0.49,1.69-0.49,2.58c0,1.84,0.58,3.38,1.75,4.61
			c0.86,0.92,2.02,1.38,3.47,1.38c1.28,0,2.3-0.37,3.05-1.12c0.49-0.49,0.82-1.22,0.97-2.18h-4.15v-3.84H86.45z"/>
		<path d="M103.92,90.71c0,1.17-0.09,2.16-0.28,2.99c-0.29,1.28-1,2.45-2.1,3.5c-1.57,1.49-3.68,2.23-6.31,2.23
			c-2.68,0-4.78-0.76-6.28-2.28c-0.8-0.8-1.34-1.8-1.64-3c-0.21-0.85-0.31-2-0.31-3.44V79.52h5.05v10.5c0,0.84,0.01,1.47,0.04,1.89
			c0.09,1.32,0.7,2.23,1.81,2.76c0.45,0.22,0.96,0.33,1.51,0.33c1.23,0,2.16-0.43,2.79-1.29c0.46-0.63,0.7-1.86,0.7-3.68v-10.5h5.05
			V90.71z"/>
		<path d="M116.66,98.93h-11.05V79.52h11.05v4.21h-6v3.31h5.67v4.21h-5.67v3.47h6V98.93z"/>
	</g>
</g>
</svg>
