<svg width="24" height="24" viewBox="0 0 24 24" fill="none" xmlns="http://www.w3.org/2000/svg">
<path d="M12.71 15.54L18.36 9.87998C18.4538 9.78702 18.5281 9.67642 18.5789 9.55456C18.6297 9.4327 18.6558 9.30199 18.6558 9.16998C18.6558 9.03797 18.6297 8.90726 18.5789 8.78541C18.5281 8.66355 18.4538 8.55294 18.36 8.45998C18.1727 8.27373 17.9192 8.16919 17.655 8.16919C17.3908 8.16919 17.1374 8.27373 16.95 8.45998L11.95 13.41L7.00002 8.45998C6.81266 8.27373 6.55921 8.16919 6.29502 8.16919C6.03084 8.16919 5.77739 8.27373 5.59002 8.45998C5.49554 8.5526 5.42037 8.66304 5.36887 8.78492C5.31737 8.90679 5.29057 9.03767 5.29003 9.16998C5.29057 9.30229 5.31737 9.43317 5.36887 9.55505C5.42037 9.67692 5.49554 9.78737 5.59002 9.87998L11.24 15.54C11.3337 15.6415 11.4473 15.7225 11.5738 15.7779C11.7003 15.8333 11.8369 15.8619 11.975 15.8619C12.1131 15.8619 12.2497 15.8333 12.3762 15.7779C12.5027 15.7225 12.6164 15.6415 12.71 15.54Z" fill="#A4A9B4"/>
</svg>
